<?xml version="1.0" standalone="no"?>
<!DOCTYPE svg PUBLIC "-//W3C//DTD SVG 20010904//EN"
 "http://www.w3.org/TR/2001/REC-SVG-20010904/DTD/svg10.dtd">
<svg version="1.0" xmlns="http://www.w3.org/2000/svg"
 width="512.000000pt" height="512.000000pt" viewBox="0 0 512.000000 512.000000"
 preserveAspectRatio="xMidYMid meet">

<g transform="translate(0.000000,512.000000) scale(0.100000,-0.100000)"
fill="#ffffff" stroke="none">
<path d="M1285 5108 c-29 -17 -38 -36 -51 -110 -16 -88 -48 -151 -107 -204
-50 -44 -137 -84 -186 -84 -41 0 -90 -19 -101 -40 -13 -24 -13 -66 0 -89 11
-22 50 -38 113 -45 147 -18 265 -142 283 -297 5 -44 13 -65 32 -84 54 -54 125
-17 137 71 26 194 125 288 336 319 58 9 82 48 66 108 -8 31 -56 57 -105 57
-78 0 -193 70 -243 148 -31 49 -43 85 -54 166 -11 78 -64 116 -120 84z m101
-415 l69 -68 -67 -67 -68 -67 -65 66 -65 67 60 59 c33 33 60 63 60 68 0 15 5
11 76 -58z"/>
<path d="M2770 5089 c0 -19 3 -57 6 -85 l6 -51 172 -6 c110 -4 207 -13 272
-26 366 -73 697 -262 947 -538 296 -327 447 -721 447 -1159 -1 -446 -149 -836
-442 -1161 -92 -102 -193 -191 -347 -302 -56 -41 -127 -102 -158 -135 -63 -68
-167 -222 -184 -273 l-11 -33 -587 0 -587 0 -27 56 c-79 161 -177 273 -351
403 -231 172 -352 294 -475 476 -177 263 -274 559 -289 880 l-7 140 -83 3 -82
3 0 -65 c0 -177 40 -418 99 -596 127 -379 356 -689 701 -946 144 -107 257
-220 303 -303 l28 -51 -110 0 -111 0 0 -80 0 -80 144 0 144 0 16 -69 c24 -107
28 -101 -64 -101 l-80 0 0 -80 0 -80 85 0 85 0 0 -139 c0 -173 5 -183 102
-191 l63 -5 6 -55 c31 -290 325 -497 602 -425 120 31 226 103 291 198 43 63
86 173 86 222 0 59 6 65 70 65 51 0 61 3 79 26 19 24 21 40 21 165 l0 139 85
0 85 0 0 80 0 80 -81 0 -81 0 7 48 c3 26 11 64 16 85 l10 37 144 0 145 0 0 80
0 80 -110 0 c-60 0 -110 3 -110 6 0 17 97 149 143 195 29 28 113 97 187 152
424 317 677 718 772 1225 29 155 31 467 4 612 -26 143 -62 277 -100 377 -208
546 -643 961 -1189 1137 -181 58 -340 85 -544 93 l-163 6 0 -34z m642 -3934
c3 -3 2 -25 -3 -48 -4 -23 -10 -59 -14 -79 l-6 -38 -499 0 -500 0 -4 23 c-3
12 -8 40 -11 62 -4 22 -9 50 -12 63 l-5 22 524 0 c289 0 527 -2 530 -5z m-24
-412 l3 -83 -496 0 -495 0 0 85 0 85 493 -2 492 -3 3 -82z m-172 -290 c-14
-105 -85 -204 -182 -253 -42 -21 -63 -25 -144 -25 -81 0 -102 4 -142 24 -98
50 -168 147 -183 254 l-7 47 332 0 333 0 -7 -47z"/>
<path d="M2412 4700 c-23 -5 -66 -22 -94 -37 -46 -25 -69 -47 -126 -121 -15
-20 -21 -22 -45 -13 -37 14 -120 14 -171 -1 -56 -16 -138 -71 -172 -115 -55
-72 -77 -172 -60 -269 l7 -41 -53 -30 c-69 -40 -137 -113 -173 -188 -40 -84
-46 -203 -16 -294 12 -35 21 -64 19 -65 -2 -2 -24 -14 -49 -29 -57 -33 -95
-75 -126 -144 -49 -106 -38 -219 30 -319 29 -42 102 -104 138 -116 7 -2 4 -24
-10 -65 -37 -109 -23 -240 35 -339 31 -53 109 -126 163 -154 40 -20 42 -23 35
-53 -38 -174 63 -344 235 -394 52 -15 143 -14 182 2 12 4 26 -8 51 -43 168
-233 534 -148 588 137 16 86 13 2359 -3 2438 -36 172 -213 288 -385 253z m156
-187 c14 -10 35 -32 46 -47 21 -27 21 -33 24 -1224 2 -821 0 -1208 -8 -1234
-13 -45 -68 -95 -115 -104 -73 -13 -147 21 -180 85 -12 25 -11 33 21 95 21 43
34 83 34 107 l0 39 -79 0 -79 0 -6 -35 c-4 -19 -18 -48 -33 -65 -111 -133
-321 -35 -289 135 11 59 82 125 136 125 19 0 20 6 20 85 0 76 -2 85 -18 85
-35 0 -114 -28 -154 -55 l-40 -27 -56 29 c-184 93 -185 342 -2 436 143 74 316
-10 350 -170 l11 -53 81 0 81 0 -6 56 c-3 30 -19 84 -36 119 -100 214 -347
301 -555 195 -70 -36 -96 -37 -146 -9 -72 40 -100 138 -64 215 32 68 126 108
173 75 106 -75 274 -85 401 -24 115 56 211 190 226 316 l7 57 -82 0 -81 0 -6
-40 c-10 -63 -62 -140 -116 -173 -37 -23 -63 -31 -115 -34 -61 -4 -74 -2 -123
24 -183 96 -182 345 2 436 l56 29 40 -27 c36 -23 126 -55 160 -55 9 0 12 24
12 85 0 79 -1 85 -20 85 -54 0 -125 66 -136 125 -16 85 41 177 121 195 84 19
176 -35 197 -116 l12 -44 78 0 78 0 0 39 c0 24 -13 64 -34 106 -25 50 -32 74
-26 89 10 27 58 72 90 85 37 16 117 7 148 -16z"/>
<path d="M3242 4700 c-132 -27 -236 -134 -262 -269 -14 -74 -14 -2348 0 -2422
54 -284 419 -371 586 -139 32 45 39 49 62 42 15 -4 59 -7 97 -7 204 1 354 192
312 396 -7 36 -7 37 45 67 69 39 137 112 173 187 40 83 46 212 16 299 -12 33
-20 60 -19 61 2 1 24 13 49 28 57 33 95 75 126 144 72 156 9 344 -141 420 -17
8 -32 17 -34 18 -2 2 7 31 19 66 29 89 24 210 -13 291 -33 72 -107 151 -176
191 -50 28 -53 31 -46 61 30 135 -24 271 -137 348 -79 54 -167 69 -280 46 -9
-2 -34 20 -60 52 -77 94 -206 142 -317 120z m127 -176 c24 -9 50 -31 67 -55
l27 -39 -32 -60 c-18 -33 -35 -82 -38 -110 l-6 -50 80 0 79 0 12 44 c21 79
113 135 193 117 52 -12 85 -39 110 -89 26 -52 22 -120 -8 -161 -27 -36 -81
-71 -109 -71 -23 0 -24 -2 -24 -85 0 -61 3 -85 13 -85 33 0 123 32 158 55 l40
26 47 -21 c119 -53 174 -169 138 -291 -20 -71 -63 -121 -132 -155 -47 -23 -63
-26 -117 -22 -126 10 -202 83 -231 221 -6 27 -7 27 -86 27 l-80 0 0 -27 c0
-86 52 -196 124 -267 128 -127 309 -155 475 -73 73 36 100 36 152 2 115 -75
78 -270 -55 -292 -25 -4 -50 3 -97 26 -162 79 -334 56 -464 -61 -75 -68 -134
-192 -135 -280 l0 -28 80 0 c88 0 78 -7 95 74 3 13 19 45 37 72 112 165 369
126 433 -66 40 -121 -17 -247 -137 -300 l-47 -21 -40 26 c-39 27 -119 55 -153
55 -16 0 -18 -9 -18 -85 0 -79 1 -85 20 -85 31 0 74 -25 103 -60 65 -77 38
-198 -55 -246 -39 -20 -107 -20 -146 0 -39 20 -80 73 -88 114 l-6 32 -81 0
-80 0 6 -51 c4 -29 20 -75 37 -105 35 -63 31 -83 -24 -132 -60 -53 -139 -55
-204 -6 -66 51 -62 -26 -62 1283 0 818 3 1198 11 1218 32 86 126 124 218 87z"/>
<path d="M777 4278 c-20 -16 -37 -60 -37 -98 0 -51 -41 -142 -86 -190 -53 -57
-115 -89 -202 -104 -37 -6 -74 -16 -83 -21 -44 -27 -47 -103 -6 -130 12 -8 53
-19 91 -25 88 -14 140 -40 198 -102 49 -51 88 -135 88 -189 0 -76 57 -131 113
-110 36 14 48 35 57 100 18 131 99 240 206 280 30 12 65 21 77 21 74 0 127 38
127 91 0 48 -28 69 -112 84 -161 28 -275 134 -293 273 -10 77 -15 92 -35 112
-23 23 -77 27 -103 8z m115 -413 l67 -65 -67 -68 -66 -67 -68 68 -68 69 28 22
c15 11 45 40 66 63 22 24 40 43 40 43 1 0 32 -29 68 -65z"/>
</g>
</svg>
